<?xml version="1.0" encoding="UTF-8"?>
<!-- Pi-Desktop "Plaid" logo. Artwork (c) 2026 defcom5-rockchip, CC BY-SA 4.0.
     Generated by make-logo.py: tartan sett + palette from the fastfetch art (plaid_logo.py),
     rounded square from the installer icons, pi outline from DejaVu Sans Bold converted to a path.
     Filled shapes only, no strokes, no filters, no fonts, no external references. -->
<svg xmlns="http://www.w3.org/2000/svg" xmlns:xlink="http://www.w3.org/1999/xlink" width="64" height="64" viewBox="0 0 64 64">
  <defs>
    <clipPath id="rr"><rect x="4" y="4" width="56" height="56" rx="12"/></clipPath>
    <clipPath id="tw"><path d="M-6.595 4h3.027L-59.568 60h-3.027ZM-0.541 4h3.027L-53.514 60h-3.027ZM5.514 4h3.027L-47.459 60h-3.027ZM11.568 4h3.027L-41.405 60h-3.027ZM17.622 4h3.027L-35.351 60h-3.027ZM23.676 4h3.027L-29.297 60h-3.027ZM29.73 4h3.027L-23.243 60h-3.027ZM35.784 4h3.027L-17.189 60h-3.027ZM41.838 4h3.027L-11.135 60h-3.027ZM47.892 4h3.027L-5.081 60h-3.027ZM53.946 4h3.027L0.973 60h-3.027ZM60 4h3.027L7.027 60h-3.027ZM66.054 4h3.027L13.081 60h-3.027ZM72.108 4h3.027L19.135 60h-3.027ZM78.162 4h3.027L25.189 60h-3.027ZM84.216 4h3.027L31.243 60h-3.027ZM90.27 4h3.027L37.297 60h-3.027ZM96.324 4h3.027L43.351 60h-3.027ZM102.378 4h3.027L49.405 60h-3.027ZM108.432 4h3.027L55.459 60h-3.027ZM114.486 4h3.027L61.514 60h-3.027Z"/></clipPath>
    <path id="pi" d="M14 17.236L50 17.236L50 23.758L45.006 23.758L45.006 36.548Q45.006 39.834 45.631 40.637Q46.255 41.439 47.682 41.439Q49.134 41.439 49.949 41.338L49.949 46.127Q48.369 46.764 42.968 46.764Q41.261 46.764 39.605 46.28Q36.955 45.49 36.217 43.172Q35.885 42.076 35.885 39.834L35.885 23.758L28.115 23.758L28.115 45.771L18.994 45.771L18.994 23.758L14 23.758L14 17.236Z"/>
  </defs>
  <rect x="4" y="4" width="56" height="56" rx="12" fill="#1C1B1A"/>
  <g clip-path="url(#rr)">
    <rect x="4" y="8.541" width="56" height="4.541" fill="#E85020"/>
    <rect x="4" y="14.595" width="56" height="1.514" fill="#F3E2B8"/>
    <rect x="4" y="17.622" width="56" height="4.541" fill="#E85020"/>
    <rect x="4" y="26.703" width="56" height="1.514" fill="#21418C"/>
    <rect x="4" y="35.784" width="56" height="1.514" fill="#21418C"/>
    <rect x="4" y="41.838" width="56" height="4.541" fill="#E85020"/>
    <rect x="4" y="47.892" width="56" height="1.514" fill="#F3E2B8"/>
    <rect x="4" y="50.919" width="56" height="4.541" fill="#E85020"/>
    <rect x="4" y="4" width="4.541" height="56" fill="#1C1B1A" fill-opacity="0.32"/>
    <rect x="8.541" y="4" width="4.541" height="56" fill="#E85020" fill-opacity="0.32"/>
    <rect x="13.081" y="4" width="1.514" height="56" fill="#1C1B1A" fill-opacity="0.32"/>
    <rect x="14.595" y="4" width="1.514" height="56" fill="#F3E2B8" fill-opacity="0.32"/>
    <rect x="16.108" y="4" width="1.514" height="56" fill="#1C1B1A" fill-opacity="0.32"/>
    <rect x="17.622" y="4" width="4.541" height="56" fill="#E85020" fill-opacity="0.32"/>
    <rect x="22.162" y="4" width="4.541" height="56" fill="#1C1B1A" fill-opacity="0.32"/>
    <rect x="26.703" y="4" width="1.514" height="56" fill="#21418C" fill-opacity="0.32"/>
    <rect x="28.216" y="4" width="7.568" height="56" fill="#1C1B1A" fill-opacity="0.32"/>
    <rect x="35.784" y="4" width="1.514" height="56" fill="#21418C" fill-opacity="0.32"/>
    <rect x="37.297" y="4" width="4.541" height="56" fill="#1C1B1A" fill-opacity="0.32"/>
    <rect x="41.838" y="4" width="4.541" height="56" fill="#E85020" fill-opacity="0.32"/>
    <rect x="46.378" y="4" width="1.514" height="56" fill="#1C1B1A" fill-opacity="0.32"/>
    <rect x="47.892" y="4" width="1.514" height="56" fill="#F3E2B8" fill-opacity="0.32"/>
    <rect x="49.405" y="4" width="1.514" height="56" fill="#1C1B1A" fill-opacity="0.32"/>
    <rect x="50.919" y="4" width="4.541" height="56" fill="#E85020" fill-opacity="0.32"/>
    <rect x="55.459" y="4" width="4.541" height="56" fill="#1C1B1A" fill-opacity="0.32"/>
    <g clip-path="url(#tw)">
      <rect x="4" y="4" width="4.541" height="56" fill="#1C1B1A" fill-opacity="0.529"/>
      <rect x="8.541" y="4" width="4.541" height="56" fill="#E85020" fill-opacity="0.529"/>
      <rect x="13.081" y="4" width="1.514" height="56" fill="#1C1B1A" fill-opacity="0.529"/>
      <rect x="14.595" y="4" width="1.514" height="56" fill="#F3E2B8" fill-opacity="0.529"/>
      <rect x="16.108" y="4" width="1.514" height="56" fill="#1C1B1A" fill-opacity="0.529"/>
      <rect x="17.622" y="4" width="4.541" height="56" fill="#E85020" fill-opacity="0.529"/>
      <rect x="22.162" y="4" width="4.541" height="56" fill="#1C1B1A" fill-opacity="0.529"/>
      <rect x="26.703" y="4" width="1.514" height="56" fill="#21418C" fill-opacity="0.529"/>
      <rect x="28.216" y="4" width="7.568" height="56" fill="#1C1B1A" fill-opacity="0.529"/>
      <rect x="35.784" y="4" width="1.514" height="56" fill="#21418C" fill-opacity="0.529"/>
      <rect x="37.297" y="4" width="4.541" height="56" fill="#1C1B1A" fill-opacity="0.529"/>
      <rect x="41.838" y="4" width="4.541" height="56" fill="#E85020" fill-opacity="0.529"/>
      <rect x="46.378" y="4" width="1.514" height="56" fill="#1C1B1A" fill-opacity="0.529"/>
      <rect x="47.892" y="4" width="1.514" height="56" fill="#F3E2B8" fill-opacity="0.529"/>
      <rect x="49.405" y="4" width="1.514" height="56" fill="#1C1B1A" fill-opacity="0.529"/>
      <rect x="50.919" y="4" width="4.541" height="56" fill="#E85020" fill-opacity="0.529"/>
      <rect x="55.459" y="4" width="4.541" height="56" fill="#1C1B1A" fill-opacity="0.529"/>
    </g>
  </g>
  <g fill="#1C1B1A">
    <use xlink:href="#pi" x="1.25" y="0"/>
    <use xlink:href="#pi" x="1.155" y="0.478"/>
    <use xlink:href="#pi" x="0.884" y="0.884"/>
    <use xlink:href="#pi" x="0.478" y="1.155"/>
    <use xlink:href="#pi" x="0" y="1.25"/>
    <use xlink:href="#pi" x="-0.478" y="1.155"/>
    <use xlink:href="#pi" x="-0.884" y="0.884"/>
    <use xlink:href="#pi" x="-1.155" y="0.478"/>
    <use xlink:href="#pi" x="-1.25" y="0"/>
    <use xlink:href="#pi" x="-1.155" y="-0.478"/>
    <use xlink:href="#pi" x="-0.884" y="-0.884"/>
    <use xlink:href="#pi" x="-0.478" y="-1.155"/>
    <use xlink:href="#pi" x="0" y="-1.25"/>
    <use xlink:href="#pi" x="0.478" y="-1.155"/>
    <use xlink:href="#pi" x="0.884" y="-0.884"/>
    <use xlink:href="#pi" x="1.155" y="-0.478"/>
  </g>
  <use xlink:href="#pi" fill="#F3E2B8"/>
</svg>
